<?xml version="1.0" encoding="utf-8"?>
<svg width="236px" height="163px" viewBox="0 0 236 163" version="1.1" xmlns:xlink="http://www.w3.org/1999/xlink" xmlns="http://www.w3.org/2000/svg">
  <g id="Group-18" transform="translate(0.5 0.5)">
    <path d="M13.6473 77.8958C29.0151 44.0055 12.4067 1.70681 76.221 1.70681C140.035 1.70681 162.019 -9.60009 208.26 25.9901C254.501 61.5803 229.871 134.901 214.875 150.442C203.31 162.427 93.8078 164.178 48.104 156.513C-17.7777 145.464 -1.7205 111.786 13.6473 77.8958Z" id="Rectangle-16" fill="#EBF0F0" fill-rule="evenodd" stroke="none" />
    <g id="Group-17" transform="translate(65 27)">
      <g id="Group-10" transform="translate(0 66)">
        <path d="M1.54052 3.43066L49.4714 5.37394L48.2812 44.947C48.2812 44.947 29.1408 43.4579 17.037 43.4579C4.93319 43.4579 1.27046e-06 44.947 1.27046e-06 44.947L1.54052 3.43066Z" id="Rectangle-15" fill="#242424" fill-rule="evenodd" stroke="#242424" stroke-width="0.5" stroke-linecap="round" stroke-linejoin="round" />
        <path d="M52.2354 5.40226L73.2062 4.55203L100.166 3.45898L101.611 46.5904C101.611 46.5904 87.8252 43.3542 75.8425 43.84C63.8598 44.3258 53.4255 44.9754 53.4255 44.9754L52.2354 5.40226Z" id="Rectangle-15-Copy" fill="#242424" fill-rule="evenodd" stroke="#242424" stroke-width="0.5" stroke-linejoin="round" />
        <path d="M5.63169 1.89105C5.63169 1.89105 10.4684 -0.393904 21.9284 0.0595527C33.3888 0.51301 51.4736 3.70488 51.4736 3.70488L50.254 43.278C50.254 43.278 32.3399 39.4737 20.8794 39.0203C9.41896 38.567 4.41211 41.4642 4.41211 41.4642L5.63169 1.89105Z" id="Rectangle-12" fill="#FFFFFF" fill-rule="evenodd" stroke="#242424" stroke-width="1" />
        <path d="M50.2461 3.70495C50.2461 3.70495 54.9303 1.04327 66.3903 0.589814C77.8507 0.136357 96.088 1.89112 96.088 1.89112L97.3076 41.4642C97.3076 41.4642 79.2026 39.0853 67.7421 39.5388C56.2816 39.9921 51.4657 43.278 51.4657 43.278L50.2461 3.70495Z" id="Rectangle-12-Copy" fill="#FFFFFF" fill-rule="evenodd" stroke="#242424" stroke-width="1" />
        <path d="M48.4372 43.5506C48.4372 43.5506 49.5015 43.8749 50.6345 43.8051C51.7675 43.7352 52.969 43.2712 52.969 43.2712L54.1642 53.8595L50.8602 51.4755L47.7695 53.8595L48.4372 43.5506Z" id="Rectangle-13" fill="#A34444" fill-rule="evenodd" stroke="#242424" stroke-width="1" stroke-linejoin="round" />
      </g>
      <g id="Group-15" transform="translate(9 17)">
        <path d="M1.999 0L68.4009 0Q68.4991 0 68.5968 0.00962573Q68.6946 0.0192515 68.7909 0.0384102Q68.8872 0.057569 68.9812 0.0860763Q69.0752 0.114584 69.1659 0.152165Q69.2566 0.189746 69.3432 0.236039Q69.4298 0.282333 69.5115 0.336892Q69.5931 0.391452 69.669 0.453752Q69.745 0.516052 69.8144 0.585494Q69.8838 0.654935 69.9461 0.730848Q70.0084 0.806761 70.063 0.888415Q70.1176 0.970069 70.1638 1.05668Q70.2102 1.14329 70.2477 1.23402Q70.2853 1.32474 70.3138 1.41872Q70.3423 1.5127 70.3615 1.60901Q70.3806 1.70533 70.3903 1.80306Q70.3999 1.9008 70.3999 1.999L70.3999 18.9119Q70.3999 19.0101 70.3903 19.1078Q70.3806 19.2056 70.3615 19.3019Q70.3423 19.3982 70.3138 19.4922Q70.2853 19.5862 70.2477 19.6769Q70.2102 19.7676 70.1639 19.8542Q70.1176 19.9408 70.063 20.0225Q70.0084 20.1041 69.9461 20.1801Q69.8838 20.256 69.8144 20.3254Q69.745 20.3949 69.669 20.4572Q69.5931 20.5195 69.5115 20.574Q69.4298 20.6286 69.3432 20.6749Q69.2566 20.7212 69.1659 20.7587Q69.0752 20.7963 68.9812 20.8248Q68.8872 20.8533 68.7909 20.8725Q68.6946 20.8917 68.5968 20.9013Q68.4991 20.9109 68.4009 20.9109L1.999 20.9109Q1.9008 20.9109 1.80306 20.9013Q1.70533 20.8917 1.60901 20.8725Q1.5127 20.8533 1.41872 20.8248Q1.32474 20.7963 1.23402 20.7587Q1.14329 20.7212 1.05668 20.6749Q0.970069 20.6286 0.888415 20.574Q0.806761 20.5195 0.730848 20.4572Q0.654935 20.3949 0.585494 20.3254Q0.516052 20.256 0.453752 20.1801Q0.391452 20.1041 0.336892 20.0225Q0.282333 19.9408 0.236039 19.8542Q0.189746 19.7676 0.152165 19.6769Q0.114584 19.5862 0.0860763 19.4922Q0.057569 19.3982 0.0384102 19.3019Q0.0192515 19.2056 0.00962573 19.1078Q0 19.0101 0 18.9119L0 1.999Q0 1.9008 0.00962573 1.80306Q0.0192515 1.70533 0.0384102 1.60901Q0.057569 1.5127 0.0860763 1.41872Q0.114584 1.32474 0.152165 1.23402Q0.189746 1.14329 0.236039 1.05668Q0.282333 0.970069 0.336892 0.888415Q0.391452 0.806761 0.453752 0.730848Q0.516052 0.654935 0.585494 0.585494Q0.654935 0.516052 0.730848 0.453752Q0.806761 0.391452 0.888415 0.336892Q0.970069 0.282333 1.05668 0.236039Q1.14329 0.189746 1.23402 0.152165Q1.32474 0.114584 1.41872 0.0860763Q1.5127 0.057569 1.60901 0.0384102Q1.70533 0.0192515 1.80306 0.00962573Q1.9008 0 1.999 0Z" id="Rectangle-17" fill="#FFFFFF" fill-rule="evenodd" stroke="#242424" stroke-width="1" />
        <g id="Group-14" transform="translate(6 5)">
          <path d="M0 4.35644C0 1.95044 1.95044 0 4.35644 0C6.76243 0 8.71288 1.95044 8.71288 4.35644C8.71288 6.76243 6.76243 8.71288 4.35644 8.71288C1.95044 8.71288 0 6.76243 0 4.35644Z" id="Ellipse" fill="#82DB78" fill-rule="evenodd" stroke="#000000" stroke-width="1" />
          <path d="M14 3.74258L55.8218 3.74258" id="Line-11" fill="#5ED885" fill-rule="evenodd" stroke="#242424" stroke-width="1" stroke-linecap="round" />
          <path d="M12 8.74257L50.3367 8.74257" id="Line-2-Copy" fill="#5ED885" fill-rule="evenodd" stroke="#242424" stroke-width="1" stroke-linecap="round" />
        </g>
      </g>
      <g id="Group-13" transform="translate(45 0)">
        <path d="M0.999 0L41.4948 0Q41.5932 0 41.6897 0.0191955Q41.7862 0.038391 41.8771 0.0760443Q41.968 0.113698 42.0498 0.168362Q42.1317 0.223026 42.2012 0.2926Q42.2708 0.362175 42.3255 0.443985Q42.3801 0.525796 42.4178 0.616699Q42.4554 0.707602 42.4746 0.804105Q42.4938 0.900607 42.4938 0.999L42.4938 11.623Q42.4938 11.7213 42.4746 11.8179Q42.4554 11.9144 42.4178 12.0053Q42.3801 12.0962 42.3255 12.178Q42.2708 12.2598 42.2012 12.3294Q42.1317 12.3989 42.0498 12.4536Q41.968 12.5083 41.8771 12.5459Q41.7862 12.5836 41.6897 12.6028Q41.5932 12.622 41.4948 12.622L0.999 12.622Q0.900607 12.622 0.804105 12.6028Q0.707602 12.5836 0.616699 12.5459Q0.525796 12.5083 0.443985 12.4536Q0.362175 12.3989 0.2926 12.3294Q0.223026 12.2598 0.168362 12.178Q0.113698 12.0962 0.0760443 12.0053Q0.038391 11.9144 0.0191955 11.8179Q0 11.7213 0 11.623L0 0.999Q0 0.900607 0.0191955 0.804105Q0.038391 0.707602 0.0760443 0.616699Q0.113698 0.525796 0.168362 0.443985Q0.223026 0.362175 0.2926 0.2926Q0.362175 0.223026 0.443985 0.168362Q0.525796 0.113698 0.616699 0.0760443Q0.707602 0.038391 0.804105 0.0191955Q0.900607 0 0.999 0Z" id="Rectangle-16-Copy-2" fill="#FFFFFF" fill-rule="evenodd" stroke="#242424" stroke-width="1" />
        <path d="M11 5.05183L36.2439 5.05183" id="Line-2-Copy-4" fill="#5ED885" fill-rule="evenodd" stroke="#242424" stroke-width="0.5" stroke-linecap="round" />
        <path d="M11 7.05183L34.1403 7.05183" id="Line-2-Copy-5" fill="#5ED885" fill-rule="evenodd" stroke="#242424" stroke-width="0.5" stroke-linecap="round" />
        <path d="M3 5.62957C3 4.1773 4.1773 3 5.62957 3C7.08185 3 8.25915 4.1773 8.25915 5.62957C8.25915 7.08185 7.08185 8.25915 5.62957 8.25915C4.1773 8.25915 3 7.08185 3 5.62957Z" id="Ellipse-Copy-2" fill="#82DB78" fill-rule="evenodd" stroke="#242424" stroke-width="1" />
      </g>
      <g id="Group-16" transform="translate(41 42)">
        <path d="M1.999 0L55.3476 0Q55.4458 0 55.5435 0.00962573Q55.6413 0.0192515 55.7376 0.0384102Q55.8339 0.057569 55.9279 0.0860763Q56.0219 0.114584 56.1126 0.152165Q56.2033 0.189746 56.2899 0.236039Q56.3765 0.282333 56.4582 0.336892Q56.5398 0.391452 56.6158 0.453752Q56.6917 0.516052 56.7611 0.585494Q56.8305 0.654935 56.8928 0.730848Q56.9551 0.806761 57.0097 0.888415Q57.0643 0.970069 57.1106 1.05668Q57.1568 1.14329 57.1944 1.23402Q57.232 1.32474 57.2605 1.41872Q57.289 1.5127 57.3082 1.60901Q57.3274 1.70533 57.337 1.80306Q57.3466 1.9008 57.3466 1.999L57.3466 15.0347Q57.3466 15.1329 57.337 15.2306Q57.3274 15.3284 57.3082 15.4247Q57.289 15.521 57.2605 15.615Q57.232 15.7089 57.1944 15.7997Q57.1569 15.8904 57.1106 15.977Q57.0643 16.0636 57.0097 16.1453Q56.9551 16.2269 56.8928 16.3028Q56.8305 16.3787 56.7611 16.4482Q56.6917 16.5176 56.6158 16.5799Q56.5398 16.6422 56.4582 16.6968Q56.3765 16.7514 56.2899 16.7976Q56.2033 16.8439 56.1126 16.8815Q56.0219 16.9191 55.9279 16.9476Q55.8339 16.9761 55.7376 16.9953Q55.6413 17.0144 55.5435 17.0241Q55.4458 17.0337 55.3476 17.0337L1.999 17.0337Q1.9008 17.0337 1.80306 17.0241Q1.70533 17.0144 1.60901 16.9953Q1.5127 16.9761 1.41872 16.9476Q1.32474 16.9191 1.23402 16.8815Q1.14329 16.8439 1.05668 16.7976Q0.970069 16.7514 0.888415 16.6968Q0.806761 16.6422 0.730848 16.5799Q0.654935 16.5176 0.585494 16.4482Q0.516052 16.3787 0.453752 16.3028Q0.391452 16.2269 0.336892 16.1453Q0.282333 16.0636 0.236039 15.977Q0.189746 15.8904 0.152165 15.7997Q0.114584 15.7089 0.0860763 15.615Q0.057569 15.521 0.0384102 15.4247Q0.0192515 15.3284 0.00962573 15.2306Q0 15.1329 0 15.0347L0 1.999Q0 1.9008 0.00962573 1.80306Q0.0192515 1.70533 0.0384102 1.60901Q0.057569 1.5127 0.0860763 1.41872Q0.114584 1.32474 0.152165 1.23402Q0.189746 1.14329 0.236039 1.05668Q0.282333 0.970069 0.336892 0.888415Q0.391452 0.806761 0.453752 0.730848Q0.516052 0.654935 0.585494 0.585494Q0.654935 0.516052 0.730848 0.453752Q0.806761 0.391452 0.888415 0.336892Q0.970069 0.282333 1.05668 0.236039Q1.14329 0.189746 1.23402 0.152165Q1.32474 0.114584 1.41872 0.0860763Q1.5127 0.057569 1.60901 0.0384102Q1.70533 0.0192515 1.80306 0.00962573Q1.9008 0 1.999 0L1.999 0Z" id="Rectangle-16-Copy-3" fill="#FFFFFF" fill-rule="evenodd" stroke="#242424" stroke-width="1" />
        <path d="M6 7.54868C6 5.5888 7.5888 4 9.54868 4C11.5086 4 13.0974 5.5888 13.0974 7.54868C13.0974 9.50857 11.5086 11.0974 9.54868 11.0974C7.5888 11.0974 6 9.50857 6 7.54868Z" id="Ellipse-Copy-3" fill="#82DB78" fill-rule="evenodd" stroke="#242424" stroke-width="1" />
        <path d="M16 8.41947L50.0674 8.41947" id="Line-2-Copy-6" fill="#82DB78" fill-rule="evenodd" stroke="#242424" stroke-width="1" stroke-linecap="round" />
        <path d="M16 12.4195L47.2284 12.4195" id="Line-2-Copy-7" fill="#82DB78" fill-rule="evenodd" stroke="#242424" stroke-width="1" stroke-linecap="round" />
      </g>
    </g>
  </g>
</svg>